<?xml version="1.0" encoding="utf-8"?>
<!-- Generator: Adobe Illustrator 16.0.0, SVG Export Plug-In . SVG Version: 6.00 Build 0)  -->
<!DOCTYPE svg PUBLIC "-//W3C//DTD SVG 1.1//EN" "http://www.w3.org/Graphics/SVG/1.1/DTD/svg11.dtd">
<svg version="1.1" id="Layer_1" xmlns="http://www.w3.org/2000/svg" xmlns:xlink="http://www.w3.org/1999/xlink" x="0px" y="0px"
	 width="640px" height="480px" viewBox="0 0 640 480" enable-background="new 0 0 640 480" xml:space="preserve">
<path fill="#4099FF" stroke="#4099FF" stroke-width="11" stroke-miterlimit="10" d="M393.787,185.718
	c-12.444-5.721-36.705-15.666-45.107-15.666c-7.028,0-32.664,9.944-45.107,15.666c-2.378,1.116-4.101,4.195-4.101,7.737l0.021,0.6
	c1.046,38.359,5.678,72.087,8.181,75.439c5.742,10.137,24.091,25.881,34.016,34.491c2.358,2.043,4.613,3.571,6.99,3.649
	c2.379-0.078,4.634-1.606,6.992-3.649c9.924-8.61,28.274-24.354,34.016-34.491c2.501-3.353,7.136-37.08,8.181-75.439l0.021-0.6
	C397.889,189.913,396.166,186.833,393.787,185.718z"/>
<path fill="none" stroke="#FCFCFC" stroke-width="11" stroke-miterlimit="10" d="M392.543,186.834
	c-12.098-5.6-35.68-15.333-43.848-15.333c-6.832,0-31.751,9.733-43.847,15.333c-2.312,1.093-3.986,4.106-3.986,7.573l0.021,0.587
	c1.017,37.547,5.519,70.56,7.952,73.84c5.581,9.923,23.418,25.333,33.065,33.76c2.292,2,4.484,3.496,6.795,3.573
	c2.313-0.077,4.505-1.573,6.797-3.573c9.646-8.427,27.484-23.838,33.064-33.76c2.432-3.28,6.937-36.293,7.952-73.84l0.021-0.587
	C396.529,190.94,394.854,187.927,392.543,186.834z"/>
<path fill="#FFFFFF" d="M392.167,187.687c-3.536-1.708-11.279-7.384-18.779-9.001c-4.369-0.943-5.457,1.646-5.513-1.161
	c-0.021-1.109-8.459-0.432-9.292,1.235c-1.661,3.322-4.914,9.411-5.189,9.322c-3.294-1.064-2.917-0.748-4.697-0.748
	c-4.832,0-22.459,7.179-31.015,11.311c-1.635,0.805-2.819,3.027-2.819,5.585l0.015,0.432c0.719,27.696,3.903,52.048,5.625,54.467
	c3.947,7.32,19.591,20.407,26.415,26.624c0.211,0.191-0.077,15.043,0.132,15.221c1.396,1.188,6.084,2.361,7.507,2.411
	c1.635-0.058,13.873-12.317,15.494-13.791c6.823-6.217,10.254-13.512,14.201-20.829c0.49-0.689,1.77-9.586,3.5-12.75
	c4.338-7.932,3.652-25.865,4.166-45.664l0.412-5.415C392.329,202.378,393.802,188.492,392.167,187.687z M354.556,296.357
	c0,0,0.111-54.387,0.072-58.084c-0.044-3.704,5.424-11.017,5.424-11.017l10.259,0.163c0,0,5.807,7.657,5.843,11.191
	c0.044,3.531,0.269,37.246,0.269,37.246L354.556,296.357z M373.53,224.492l-16.27-0.146l-5.599-18.921l11.697-24.761l0.208,16.477
	c-2.067,0.809-4.579,3.452-4.554,5.83c0.036,3.127,2.768,5.704,5.896,5.754c3.126,0.052,5.708-2.445,5.671-5.569
	c-0.024-2.333-2.374-4.975-4.395-5.874l-0.216-16.629l12.979,25.32L373.53,224.492z"/>
</svg>
